arm26_states
version=1
nRows=13
nColumns=17
inDegrees=yes

# SIMM Motion File Header:
name arm26_states
datacolumns 17
datarows 13
otherdata 1
range 0.00001899 0.00002810
endheader
time	/jointset/r_shoulder/r_shoulder_elev/value	/jointset/r_shoulder/r_shoulder_elev/speed	/jointset/r_elbow/r_elbow_flex/value	/jointset/r_elbow/r_elbow_flex/speed	/forceset/TRIlong/activation	/forceset/TRIlong/fiber_length	/forceset/TRIlat/activation	/forceset/TRIlat/fiber_length	/forceset/TRImed/activation	/forceset/TRImed/fiber_length	/forceset/BIClong/activation	/forceset/BIClong/fiber_length	/forceset/BICshort/activation	/forceset/BICshort/fiber_length	/forceset/BRA/activation	/forceset/BRA/fiber_length
      0.00001899	     29.99949720	     -0.00268545	      1.96169290	      8.48607790	      0.12358000	      0.08149300	      0.12002000	      0.07658600	      0.15305000	      0.13826000	      0.11148000	      0.13728000	      0.06223400	      0.00300000	      0.00000153	      0.00001900
      0.00001908	     29.99949719	     -0.14209185	      1.96169366	      8.85254424	      0.12357981	      0.08161019	      0.12001985	      0.07658597	      0.15304917	      0.13825990	      0.11147986	      0.13728000	      0.06223390	      0.00431268	      0.00000147	      0.00898478
      0.00001916	     29.99949717	     -0.27156534	      1.96169444	      9.19039177	      0.12357962	      0.08172700	      0.12001969	      0.07658593	      0.15304835	      0.13825979	      0.11147972	      0.13728000	      0.06223381	      0.00556586	      0.00000140	      0.01499994
      0.00001929	     29.99949712	     -0.44938116	      1.96169565	      9.65101033	      0.12357934	      0.08189818	      0.12001947	      0.07658588	      0.15304713	      0.13825964	      0.11147952	      0.13728000	      0.06223366	      0.00731272	      0.00000131	      0.02142900
      0.00001948	     29.99949702	     -0.68319836	      1.96169747	     10.25136878	      0.12357894	      0.08214025	      0.12001914	      0.07658581	      0.15304540	      0.13825943	      0.11147922	      0.13727999	      0.06223346	      0.00962381	      0.00000118	      0.02806700
      0.00001974	     29.99949680	     -0.98800624	      1.96170025	     11.02560481	      0.12357838	      0.08248256	      0.12001868	      0.07658571	      0.15304293	      0.13825912	      0.11147881	      0.13727999	      0.06223317	      0.01262402	      0.00000099	      0.03495830
      0.00002011	     29.99949636	     -1.37871286	      1.96170451	     12.00467468	      0.12357757	      0.08296370	      0.12001803	      0.07658557	      0.15303942	      0.13825868	      0.11147822	      0.13727999	      0.06223277	      0.01641468	      0.00000072	      0.04210115
      0.00002063	     29.99949551	     -1.86970611	      1.96171114	     13.21364365	      0.12357643	      0.08363567	      0.12001710	      0.07658536	      0.15303445	      0.13825806	      0.11147738	      0.13727998	      0.06223218	      0.02107261	      0.00000033	      0.04948320
      0.00002138	     29.99949389	     -2.47155415	      1.96172153	     14.66093321	      0.12357481	      0.08456690	      0.12001579	      0.07658508	      0.15302740	      0.13825718	      0.11147619	      0.13727997	      0.06223136	      0.02663931	     -0.00000021	      0.05705840
      0.00002238	     29.99949105	     -3.15669105	      1.96173709	     16.25570328	      0.12357262	      0.08578822	      0.12001402	      0.07658469	      0.15301789	      0.13825599	      0.11147459	      0.13727996	      0.06223025	      0.03285422	     -0.00000094	      0.06442270
      0.00002370	     29.99948636	     -3.89721254	      1.96175976	     17.90219816	      0.12356974	      0.08733925	      0.12001168	      0.07658418	      0.15300534	      0.13825443	      0.11147247	      0.13727995	      0.06222879	      0.03954963	     -0.00000191	      0.07133973
      0.00002549	     29.99947868	     -4.68542469	      1.96179320	     19.53910624	      0.12356586	      0.08932859	      0.12000853	      0.07658349	      0.15298847	      0.13825232	      0.11146962	      0.13727993	      0.06222682	      0.04683806	     -0.00000320	      0.07775782
      0.00002810	     29.99946523	     -5.55141351	      1.96184660	     21.14277883	      0.12356016	      0.09207012	      0.12000392	      0.07658247	      0.15296368	      0.13824922	      0.11146544	      0.13727990	      0.06222392	      0.05533386	     -0.00000511	      0.08371487
